/* XPM */
static char *result[] = {
/* columns rows colors chars-per-pixel */
"16 16 18 1 ",
"  c black",
". c #353E50",
"X c #4D4551",
"o c #58515F",
"O c #434F65",
"+ c #4E5B73",
"@ c #596782",
"# c #5E6A80",
"$ c #5A6988",
"% c #65728A",
"& c #67738B",
"* c #6D798F",
"= c #6F7F9F",
"- c #717F9C",
"; c #7B8AA7",
": c #8895AF",
"> c #8A97B1",
", c #97A2B9",
/* pixels */
"O=$$$$-::;$$$$$=",
"...#::*,,*::%...",
"%::*,,@==@,,*::%",
"*,,@==@==@==@,,*",
"@==Xoo    ooX==@",
"&>>          >>&",
"@==          ==@",
"+@@          @@+",
"&>>          >>&",
"@==          ==@",
"+@@          @@+",
"&>>          >>&",
"@==          ==@",
"+@@          @@+",
"&>>          >>&",
"@==          ==@"
};
